<?xml version="1.0" encoding="utf-8"?>
<!-- Generator: Adobe Illustrator 26.0.1, SVG Export Plug-In . SVG Version: 6.00 Build 0)  -->
<svg version="1.1" id="Capa_1" xmlns="http://www.w3.org/2000/svg" xmlns:xlink="http://www.w3.org/1999/xlink" x="0px" y="0px"
	 viewBox="0 0 983 385" style="enable-background:new 0 0 983 385;" xml:space="preserve">
<style type="text/css">
	.st0{fill-rule:evenodd;clip-rule:evenodd;fill:#CECECE;}
	.st1{fill-rule:evenodd;clip-rule:evenodd;fill:#FDB440;}
	.st2{fill-rule:evenodd;clip-rule:evenodd;fill:#BAAFB9;}
	.st3{fill-rule:evenodd;clip-rule:evenodd;fill:#FE9737;}
	.st4{fill-rule:evenodd;clip-rule:evenodd;fill:#E8EAEA;}
	.st5{fill-rule:evenodd;clip-rule:evenodd;fill:#6BD9E7;}
	.st6{fill-rule:evenodd;clip-rule:evenodd;fill:#00C7DD;}
	.st7{fill-rule:evenodd;clip-rule:evenodd;fill:#D4D6D8;}
	.st8{fill:none;}
	.st9{font-family:'Raleigh';}
	.st10{font-size:100px;}
	.st11{letter-spacing:-30;}
</style>
<g>
	<g>
		<g>
			<path class="st0" d="M172.9,145v-21.1c0-1.5-1.2-2.6-2.7-2.6h-6.1h-38.6h-6.1c-1.5,0-2.7,1.2-2.7,2.6V145c0,1.5,1.2,2.7,2.7,2.7
				h50.7C171.7,147.7,172.9,146.5,172.9,145L172.9,145z"/>
		</g>
		<g>
			<path class="st1" d="M324.7,323.2v-40.1c0-3.8-3.1-6.8-6.9-6.8h-20.1h-30.8h-18.7c-3.8,0-6.8,3.1-6.8,6.8v40.1L324.7,323.2
				L324.7,323.2z"/>
		</g>
		<g>
			<path class="st0" d="M324.7,317.1h-83.3h-9.5c-6.2,0-11.3,5.1-11.3,11.3v8.2c0,1.7,1.4,3,3,3h118.7c1.7,0,3-1.4,3-3v-8.2
				c0-6.2-5.1-11.3-11.3-11.3H324.7z"/>
		</g>
		<g>
			<path class="st2" d="M170.3,121.3h-6.1h-11.2c1.5,0,2.7,1.2,2.7,2.6V145c0,1.5-1.2,2.7-2.7,2.7h17.3c1.5,0,2.7-1.2,2.7-2.7v-21.1
				C172.9,122.4,171.7,121.3,170.3,121.3z"/>
		</g>
		<g>
			<path class="st1" d="M311,40.3h-57.5c-1.6,0-2.9,1.3-2.9,2.9v4.9v30.8v4.9c0,1.6,1.3,2.9,2.9,2.9h13.3h30.8H311
				c1.6,0,2.9-1.3,2.9-2.9v-4.9V48.1v-4.9C314,41.6,312.7,40.3,311,40.3L311,40.3z"/>
		</g>
		<g>
			<path class="st3" d="M314,48.1v-4.9c0-1.6-1.3-2.9-2.9-2.9h-20.9c1.6,0,2.9,1.3,2.9,2.9v4.9v30.8v4.9c0,1.6-1.3,2.9-2.9,2.9h7.6
				H311c1.6,0,2.9-1.3,2.9-2.9v-4.9L314,48.1L314,48.1z"/>
		</g>
		<g>
			<path class="st3" d="M324.7,283.1c0-3.8-3.1-6.8-6.9-6.8h-20.1h-0.8c3.8,0,6.8,3.1,6.8,6.8v34h9.5h11.5L324.7,283.1z"/>
		</g>
		<g>
			<path class="st2" d="M345.4,328.4c0-6.2-5.1-11.3-11.3-11.3h-9.5h-11.5c6.2,0,11.3,5.1,11.3,11.3v8.2c0,1.7-1.4,3-3,3h20.9
				c1.7,0,3-1.4,3-3L345.4,328.4L345.4,328.4z"/>
		</g>
		<g>
			<path class="st4" d="M98.4,229.1v-88.9c0-0.8-0.5-1.4-1.4-1.4H50.7c-1.2,0-2.1,1.3-2.1,2.8v195.1c0,1.5,0.9,2.8,2.1,2.8H146
				c1.2,0,2.1-1.3,2.1-2.8V230.6c0-0.9-1-1.4-1.6-1.4h-23.4L98.4,229.1z"/>
		</g>
		<g>
			<path class="st5" d="M98.4,274.6v-22.9H70.6c-1.2,0-2.2,1-2.2,2.2v18.4c0,1.2,1,2.2,2.2,2.2L98.4,274.6L98.4,274.6z"/>
		</g>
		<g>
			<path class="st5" d="M128.3,272.3v-18.4c0-1.2-1-2.2-2.2-2.2H98.4v22.9h27.7C127.3,274.6,128.3,273.6,128.3,272.3z"/>
		</g>
		<g>
			<path class="st5" d="M128.3,299.3c0-1.2-1-2.2-2.2-2.2H98.4V320h27.7c1.2,0,2.2-1,2.2-2.2V299.3z"/>
		</g>
		<g>
			<path class="st5" d="M98.4,320v-22.9H70.6c-1.2,0-2.2,1-2.2,2.2v18.4c0,1.2,1,2.2,2.2,2.2L98.4,320L98.4,320z"/>
		</g>
		<g>
			<path class="st6" d="M98.4,251.7H70.6c-1.2,0-2.2,1-2.2,2.2v9.2c0-1.2,1-2.2,2.2-2.2h27.7V251.7z"/>
		</g>
		<g>
			<path class="st6" d="M126.1,251.7H98.4v9.2h27.7c1.2,0,2.2,1,2.2,2.2v-9.2C128.3,252.7,127.3,251.7,126.1,251.7L126.1,251.7z"/>
		</g>
		<g>
			<path class="st6" d="M126.1,297.1H98.4v9.2h27.7c1.2,0,2.2,1,2.2,2.2v-9.2C128.3,298.1,127.3,297.1,126.1,297.1L126.1,297.1z"/>
		</g>
		<g>
			<path class="st6" d="M98.4,297.1H70.6c-1.2,0-2.2,1-2.2,2.2v9.2c0-1.2,1-2.2,2.2-2.2h27.7V297.1z"/>
		</g>
		<g>
			<path class="st7" d="M148.2,336.8V230.6c0-0.9-1-1.4-1.6-1.4H135c0.6,0,1.5,0.5,1.5,1.4v106.3c0,1.5-1,2.8-2.1,2.8H146
				C147.2,339.7,148.2,338.4,148.2,336.8L148.2,336.8z"/>
		</g>
		<g>
			<path class="st7" d="M86.7,160.8v68.3h11.7V197v-36.1v-20.5c0-0.8-0.5-1.4-1.4-1.4H85.3c0.9,0,1.4,0.6,1.4,1.4V160.8z"/>
		</g>
		<g>
			<path d="M148.2,201.5c2.5,0,4.5-2,4.5-4.5c0-2.5-2-4.5-4.5-4.5h-20.4v-13.5c0-2.5-2-4.5-4.5-4.5c-2.5,0-4.5,2-4.5,4.5v13.5h-15.9
				v-52.2c0-3.3-2.6-5.9-5.9-5.9H50.7c-3.7,0-6.7,3.2-6.7,7.4v195.1c0,4.1,2.9,7.4,6.7,7.4H146c3.7,0,6.7-3.3,6.7-7.4V290
				c0-2.5-2-4.5-4.5-4.5c-2.5,0-4.5,2-4.5,4.5v45.2H53.1V143.4h40.8v11.4H78.6c-2.5,0-4.5,2-4.5,4.5s2,4.5,4.5,4.5h15.3v16.4H80.2
				c-2.5,0-4.5,2-4.5,4.5s2,4.5,4.5,4.5h13.7v39.9c0,2.5,2,4.5,4.5,4.5h45.3V269c0,2.5,2,4.5,4.5,4.5c2.5,0,4.5-2,4.5-4.5v-38.4
				c0-3.7-3.1-5.9-6.1-5.9h-18.8v-23.1L148.2,201.5z M118.8,224.6h-15.9v-23.1h15.9L118.8,224.6L118.8,224.6z"/>
			<path d="M302.2,244.7v-22.3v-40.9c0,0,0,0,0,0v-13v-50.2c0,0,0,0,0,0v-3.7V91.3h8.8c4.1,0,7.4-3.3,7.4-7.4v-0.4h23.4
				c2,0,3.8-0.6,5.3-1.7c0.3-0.2,0.5-0.4,0.7-0.6c0.1-0.1,0.1-0.1,0.1-0.2c1.3-1.3,2.1-3.1,2.1-5V51.1c0-4.1-3.7-7.5-8.3-7.5h-23.4
				v-0.4c0-4.1-3.3-7.4-7.4-7.4h-57.5c-4.1,0-7.4,3.3-7.4,7.4v0.4h-8.5h-50.3c0,0,0,0,0,0h-3.7h-64.7c-4.6,0-8.3,3.4-8.3,7.5v24.8
				c0,4.1,3.7,7.5,8.3,7.5h21.5V99l-16.7,17.8h-4.1c-4,0-7.2,3.2-7.2,7.2V145c0,4,3.2,7.2,7.2,7.2h50.7c4,0,7.2-3.2,7.2-7.2v-21.1
				c0-4-3.2-7.2-7.2-7.2h-4.1L149.4,99V83.4h34.1h54h8.5v0.4c0,4.1,3.3,7.4,7.4,7.4h8.8v23.3v53.9v53.9v49.4h-14.2
				c-6.3,0-11.4,5.1-11.4,11.3v29.5h-5c-8.7,0-15.8,7.1-15.8,15.8v8.2c0,4.2,3.4,7.5,7.6,7.5h118.7c4.2,0,7.5-3.4,7.5-7.5v-8.2
				c0-8.7-7.1-15.8-15.8-15.8h-5v-29.5c0-6.3-5.1-11.3-11.4-11.3h-15.6L302.2,244.7C302.2,244.7,302.2,244.7,302.2,244.7
				L302.2,244.7z M341.1,52.7v15.5l-16-15.5L341.1,52.7z M318.5,58.8l16,15.6h-16V58.8z M119.7,74.4V52.7h2.5l22.4,21.7L119.7,74.4z
				 M168.4,125.8v17.4h-47v-17.4H168.4z M153.7,116.7h-17.6l8.8-9.4L153.7,116.7z M135.1,52.7h41.1l-20.5,19.9L135.1,52.7z
				 M183.6,74.4l-16.8,0l20.5-19.9l20.5,19.9H183.6z M198.5,52.7h39.1h1.9L219,72.6L198.5,52.7z M237.6,74.4h-7.5l16-15.5v15.5
				H237.6z M317.8,280.8c1.3,0,2.3,1,2.3,2.3v29.5h-26.3c-2.5,0-4.5,2-4.5,4.5c0,2.5,2,4.5,4.5,4.5h40.3c3.7,0,6.8,3,6.8,6.8v6.7
				H225.1v-6.7c0-3.7,3-6.8,6.8-6.8H272c2.5,0,4.5-2,4.5-4.5c0-2.5-2-4.5-4.5-4.5h-26.1v-29.5c0-1.3,1.1-2.3,2.3-2.3h18.7h30.8
				H317.8z M291.4,118.3l-20,20.5v-24.2V97.8L291.4,118.3z M277.6,91.3h15.6v16L277.6,91.3z M293.2,129.4v39.1v1.9l-20-20.5
				L293.2,129.4z M291.4,181.5l-20,20.5v-33.5V161L291.4,181.5z M293.2,192.6v29.8v11.2l-20-20.5L293.2,192.6z M291.4,244.7
				l-20,20.5v-41L291.4,244.7z M293.2,255.8v16h-15.6L293.2,255.8z M297.7,82.2H267c0,0,0,0,0,0h0h-11.7V44.8h54.3v37.4H297.7z"/>
			<path d="M132.8,253.9c0-3.7-3-6.8-6.7-6.8H70.6c-3.7,0-6.8,3-6.8,6.8v18.4c0,3.7,3,6.8,6.8,6.8h55.5c3.7,0,6.7-3,6.7-6.8V253.9z
				 M93.8,270.1H72.9v-13.9h20.9L93.8,270.1L93.8,270.1z M123.8,270.1h-20.9v-13.9h20.9L123.8,270.1L123.8,270.1z"/>
			<path d="M126.1,292.6H70.6c-3.7,0-6.8,3-6.8,6.8v18.4c0,3.7,3,6.8,6.8,6.8h55.5c3.7,0,6.7-3,6.7-6.8v-18.4
				C132.8,295.6,129.8,292.6,126.1,292.6L126.1,292.6z M93.8,315.5H72.9v-13.9h20.9L93.8,315.5L93.8,315.5z M123.8,315.5h-20.9
				v-13.9h20.9L123.8,315.5L123.8,315.5z"/>
		</g>
	</g>
	<rect x="422.3" y="35.8" class="st8" width="556" height="328"/>
	<text transform="matrix(1 0 0 1 422.3006 104.1697)"><tspan x="0" y="0" class="st9 st10 st11">Python </tspan><tspan x="0" y="120" class="st9 st10 st11">Project </tspan><tspan x="0" y="240" class="st9 st10 st11">Creator</tspan></text>
</g>
</svg>
