<?xml version="1.0" encoding="utf-8"?>
<!-- Generator: Adobe Illustrator 26.0.1, SVG Export Plug-In . SVG Version: 6.00 Build 0)  -->
<svg version="1.1" id="Capa_1" xmlns="http://www.w3.org/2000/svg" xmlns:xlink="http://www.w3.org/1999/xlink" x="0px" y="0px"
	 viewBox="0 0 983 385" style="enable-background:new 0 0 983 385;" xml:space="preserve">
<style type="text/css">
	.st0{fill-rule:evenodd;clip-rule:evenodd;fill:#CECECE;}
	.st1{fill-rule:evenodd;clip-rule:evenodd;fill:#FDB440;}
	.st2{fill-rule:evenodd;clip-rule:evenodd;fill:#BAAFB9;}
	.st3{fill-rule:evenodd;clip-rule:evenodd;fill:#FE9737;}
	.st4{fill-rule:evenodd;clip-rule:evenodd;fill:#E8EAEA;}
	.st5{fill-rule:evenodd;clip-rule:evenodd;fill:#6BD9E7;}
	.st6{fill-rule:evenodd;clip-rule:evenodd;fill:#00C7DD;}
	.st7{fill-rule:evenodd;clip-rule:evenodd;fill:#D4D6D8;}
	.st8{enable-background:new    ;}
</style>
<path class="st0" d="M172.9,145v-21.1c0-1.5-1.2-2.7-2.7-2.7h-50.7c-1.5,0-2.7,1.2-2.7,2.7l0,0V145c0,1.5,1.2,2.7,2.7,2.7h50.7
	C171.7,147.7,172.9,146.5,172.9,145z"/>
<path class="st1" d="M324.7,323.2v-40c0-3.8-3.1-6.8-6.9-6.8h-69.6c-3.8,0-6.8,3.1-6.8,6.8v40H324.7z"/>
<path class="st0" d="M324.7,317.1h-92.8c-6.2,0-11.3,5-11.3,11.3v8.2c0,1.7,1.3,3,3,3h118.8c1.7,0,3-1.3,3-3v-8.2
	c0-6.2-5.1-11.3-11.3-11.3H324.7z"/>
<path class="st2" d="M170.2,121.3h-17.3c1.5,0,2.7,1.2,2.7,2.7V145c0,1.5-1.2,2.7-2.7,2.7h17.3c1.5,0,2.7-1.2,2.7-2.7v-21.1
	C172.9,122.4,171.7,121.3,170.2,121.3z"/>
<path class="st1" d="M311,40.3h-57.4c-1.6,0-2.9,1.3-2.9,2.9v40.6c0,1.6,1.3,2.9,2.9,2.9H311c1.6,0,3-1.2,3-2.9c0,0,0,0,0-0.1V43.2
	C314,41.6,312.7,40.3,311,40.3C311,40.3,311,40.3,311,40.3z"/>
<path class="st3" d="M314,48.1v-4.9c0-1.6-1.3-2.9-2.9-2.9c0,0,0,0-0.1,0h-20.9c1.6,0,2.9,1.3,2.9,2.9v40.6c0,1.6-1.3,2.9-2.9,2.9
	H311c1.6,0,3-1.2,3-2.9c0,0,0,0,0-0.1V48.1z"/>
<path class="st3" d="M324.7,283.1c0-3.8-3.1-6.8-6.9-6.8h-20.9c3.8,0,6.8,3.1,6.8,6.8v34h20.9V283.1z"/>
<path class="st2" d="M345.4,328.4c0-6.2-5.1-11.3-11.3-11.3h-21c6.2,0,11.3,5,11.3,11.3v8.2c0,1.7-1.3,3-3,3c0,0,0,0-0.1,0h21
	c1.7,0,3-1.3,3-3L345.4,328.4L345.4,328.4z"/>
<path class="st4" d="M98.4,229.1v-88.9c0.1-0.7-0.5-1.4-1.2-1.4c-0.1,0-0.1,0-0.2,0H50.7c-1.2,0-2.1,1.3-2.1,2.8v195.1
	c0,1.5,1,2.8,2.1,2.8h95.4c1.2,0,2.1-1.3,2.1-2.8V230.6c-0.1-0.8-0.7-1.4-1.6-1.4H98.4z"/>
<path class="st5" d="M98.4,274.6v-22.9H70.6c-1.2,0-2.2,1-2.2,2.2v18.4c0,1.2,1,2.2,2.2,2.2c0,0,0,0,0,0H98.4z"/>
<path class="st5" d="M128.3,272.3v-18.4c0-1.2-1-2.2-2.2-2.2H98.4v22.9h27.7C127.3,274.6,128.3,273.6,128.3,272.3
	C128.3,272.3,128.3,272.3,128.3,272.3z"/>
<path class="st5" d="M128.3,299.3c0-1.2-1-2.2-2.2-2.2H98.4V320h27.7c1.2,0,2.2-1,2.2-2.2c0,0,0,0,0,0L128.3,299.3z"/>
<path class="st5" d="M98.4,320v-22.9H70.6c-1.2,0-2.2,1-2.2,2.2v18.4c0,1.2,1,2.2,2.2,2.2c0,0,0,0,0,0H98.4z"/>
<path class="st6" d="M98.4,251.7H70.6c-1.2,0-2.2,1-2.2,2.2v9.2c0-1.2,1-2.2,2.2-2.2h27.7V251.7z"/>
<path class="st6" d="M126.1,251.7H98.4v9.2h27.7c1.2,0,2.2,1,2.2,2.2v-9.2C128.3,252.7,127.3,251.7,126.1,251.7z"/>
<path class="st6" d="M126.1,297.1H98.4v9.2h27.7c1.2,0,2.2,1,2.2,2.2v-9.2C128.3,298.1,127.3,297.1,126.1,297.1L126.1,297.1z"/>
<path class="st6" d="M98.4,297.1H70.6c-1.2,0-2.2,1-2.2,2.2v9.2c0-1.2,1-2.2,2.2-2.2h27.7V297.1z"/>
<path class="st7" d="M148.2,336.8V230.6c-0.1-0.8-0.7-1.4-1.6-1.4H135c0.8,0,1.5,0.6,1.5,1.4v106.3c0,1.5-1,2.8-2.1,2.8h11.7
	C147.2,339.6,148.2,338.4,148.2,336.8L148.2,336.8z"/>
<path class="st7" d="M86.7,160.8v68.3h11.7v-88.9c0.1-0.7-0.5-1.4-1.2-1.4c-0.1,0-0.1,0-0.2,0H85.3c0.7,0,1.3,0.5,1.4,1.3
	c0,0.1,0,0.1,0,0.2V160.8z"/>
<path d="M148.2,201.5c2.5-0.2,4.3-2.4,4.1-4.9c-0.2-2.2-1.9-3.9-4.1-4.1h-20.4v-13.6c0.2-2.5-1.6-4.7-4.1-4.9s-4.7,1.6-4.9,4.1
	c0,0.3,0,0.6,0,0.8v13.5h-15.9v-52.2c0-3.2-2.5-5.9-5.7-5.9c0,0-0.1,0-0.1,0H50.7c-3.7,0-6.7,3.2-6.7,7.4v195.1
	c0,4.1,2.9,7.4,6.7,7.4h95.4c3.7,0,6.6-3.3,6.6-7.4V290c-0.2-2.5-2.4-4.3-4.9-4.1c-2.2,0.2-3.9,1.9-4.1,4.1v45.2H53.1V143.4h40.8
	v11.4H78.6c-2.5,0.2-4.3,2.4-4.1,4.9c0.2,2.2,1.9,3.9,4.1,4.1h15.3v16.4H80.2c-2.5-0.2-4.7,1.6-4.9,4.1c-0.2,2.5,1.6,4.7,4.1,4.9
	c0.3,0,0.6,0,0.8,0h13.7v39.9c0,2.5,2,4.5,4.5,4.5l0,0h45.3V269c-0.2,2.5,1.6,4.7,4.1,4.9c2.5,0.2,4.7-1.6,4.9-4.1
	c0-0.3,0-0.6,0-0.8v-38.4c0-3.3-2.8-6-6.1-5.9c0,0,0,0,0,0h-18.8v-23.1H148.2z M118.8,224.6h-15.9v-23.1h15.9L118.8,224.6
	L118.8,224.6z"/>
<path d="M302.2,244.7v-63.2l0,0v-63.2l0,0V91.3h8.8c4.1,0,7.4-3.3,7.4-7.4v-0.4h23.4c1.9,0,3.7-0.6,5.3-1.7c0.3-0.2,0.5-0.4,0.7-0.6
	l0.1-0.2c1.3-1.3,2.1-3.1,2.1-5V51.1c0-4.1-3.7-7.5-8.3-7.5h-23.4v-0.4c0-4.1-3.3-7.4-7.5-7.4c0,0,0,0,0,0h-57.4
	c-4.1,0-7.4,3.3-7.4,7.4v0.4H118.9c-4.6,0-8.3,3.3-8.3,7.5v24.8c0,4.1,3.7,7.5,8.3,7.5h21.5V99l-16.7,17.8h-4.1
	c-4,0-7.2,3.2-7.2,7.2V145c0,4,3.2,7.2,7.2,7.2h50.7c4,0,7.2-3.2,7.2-7.2v-21.1c0-4-3.2-7.2-7.2-7.2h-4.1L149.4,99V83.4h96.7v0.4
	c0,4.1,3.3,7.4,7.4,7.4h8.8v180.5h-14.2c-6.3,0-11.3,5.1-11.4,11.3v29.5h-5c-8.7,0-15.8,7.1-15.8,15.8v8.2c0,4.2,3.4,7.5,7.6,7.5
	h118.8c4.2,0,7.5-3.4,7.5-7.5v-8.2c0-8.7-7.1-15.8-15.8-15.8h-5v-29.5c0-6.3-5.1-11.3-11.4-11.3h-15.5V244.7L302.2,244.7z
	 M341.1,52.7v15.5l-16-15.5L341.1,52.7z M318.5,58.9l16,15.5h-16V58.9z M119.7,74.4V52.7h2.5l22.4,21.7H119.7z M168.4,125.8v17.4
	h-47v-17.4L168.4,125.8z M153.7,116.8h-17.7l8.8-9.4L153.7,116.8z M135.1,52.7h41.1l-20.5,19.9L135.1,52.7z M183.6,74.4h-16.8
	l20.5-19.9l20.5,19.9H183.6z M198.5,52.7h41.1L219,72.6L198.5,52.7z M237.6,74.4h-7.5l16-15.5v15.5H237.6z M317.8,280.8
	c1.3,0,2.3,1,2.3,2.3c0,0,0,0,0,0v29.5h-26.3c-2.5,0.2-4.3,2.4-4.1,4.9c0.2,2.2,1.9,3.9,4.1,4.1h40.3c3.7,0,6.8,3,6.8,6.8v6.7H225.1
	v-6.7c0-3.7,3-6.8,6.8-6.8H272c2.5-0.2,4.3-2.4,4.1-4.9c-0.2-2.2-1.9-3.9-4.1-4.1h-26.1v-29.5c0-1.3,1.1-2.3,2.3-2.3H317.8z
	 M291.4,118.3l-20,20.5v-41L291.4,118.3z M277.6,91.3h15.6v16L277.6,91.3z M293.2,129.4v41l-20-20.5L293.2,129.4z M291.4,181.5
	l-20,20.5v-41L291.4,181.5z M293.2,192.6v41l-20-20.5L293.2,192.6z M291.4,244.7l-20,20.5v-41L291.4,244.7z M293.2,255.8v16h-15.6
	L293.2,255.8z M297.7,82.2h-42.5V44.8h54.3v37.4L297.7,82.2z"/>
<path d="M132.8,253.9c0-3.7-3-6.7-6.7-6.8H70.6c-3.7,0-6.8,3-6.8,6.8v18.4c0,3.7,3,6.8,6.8,6.8h55.5c3.7,0,6.7-3,6.7-6.8V253.9z
	 M93.8,270H72.9v-13.9h20.9V270z M123.8,270h-21v-13.9h20.9L123.8,270L123.8,270z"/>
<path d="M126.1,292.6H70.6c-3.7,0-6.8,3-6.8,6.8v18.4c0,3.7,3,6.8,6.8,6.8h55.5c3.7,0,6.7-3,6.7-6.8v-18.4
	C132.8,295.6,129.8,292.6,126.1,292.6z M93.8,315.5H72.9v-13.9h20.9V315.5z M123.8,315.5h-21v-13.9h20.9L123.8,315.5L123.8,315.5z"
	/>
<g class="st8">
	<path d="M422.3,35.8h11.6v68.4h-11.6V35.8z M478.3,56.2c0-6.4-1.9-11.5-5.8-15.2c-3.9-3.7-8.7-5.4-14.4-5.2h-7v11.6h7.1h0.3
		c2.5,0,4.4,0.7,5.9,2.1c1.5,1.4,2.2,3.6,2.2,6.7c0,2.2-0.6,3.8-1.7,4.9c-2.1,2.1-6.6,3.1-13.4,3h-0.9v11.6h0.8
		c10,0.1,17.2-2,21.6-6.3C476.6,66.1,478.3,61.7,478.3,56.2z"/>
	<path d="M570.6,35.8L515,104.2h-15l55.7-68.4H570.6z M515,35.8l16.6,20.4l-7.5,9.2l-24-29.5H515z"/>
	<path d="M590.3,35.8h44.8v11.6h-44.8V35.8z M606.9,53.2h11.6v50.9h-11.6V53.2z"/>
	<path d="M657.1,35.8h11.6v68.4h-11.6V35.8z M712.6,35.8v68.4H701V75.8h-25.8V64.1H701V35.8H712.6z"/>
	<path d="M777.2,35.8c3.7,0,6.9,1.3,9.6,4c2.6,2.6,4,5.8,4,9.6v41.3c0,3.7-1.3,6.9-4,9.6c-2.6,2.6-5.8,4-9.6,4h-29
		c-3.4,0-6.3-1.1-8.9-3.4c-2.5-2.2-4-4.9-4.5-8.3h42.3c0.5,0,1-0.2,1.4-0.5c0.4-0.4,0.6-0.8,0.6-1.4V49.4c0-0.6-0.2-1-0.6-1.4
		c-0.4-0.4-0.8-0.6-1.4-0.6h-29c-0.5,0-1,0.2-1.4,0.6c-0.4,0.4-0.5,0.8-0.5,1.4v37.4h-11.6V49.4c0-3.7,1.3-6.9,4-9.6
		c2.7-2.7,5.9-4,9.6-4H777.2z"/>
	<path d="M824.6,35.8l33.5,40v18.4l-33.5-40v50H813V35.8H824.6z M877.3,35.8v68.4h-11.6V35.8H877.3z"/>
</g>
<g class="st8">
	<path d="M422.3,155.8h11.6v68.4h-11.6V155.8z M478.3,176.2c0-6.4-1.9-11.5-5.8-15.2c-3.9-3.7-8.7-5.4-14.4-5.2h-7v11.6h7.1h0.3
		c2.5,0,4.4,0.7,5.9,2.1c1.5,1.4,2.2,3.6,2.2,6.7c0,2.2-0.6,3.8-1.7,4.9c-2.1,2.1-6.6,3.1-13.4,3h-0.9v11.6h0.8
		c10,0.1,17.2-2,21.6-6.3C476.6,186.1,478.3,181.7,478.3,176.2z"/>
	<path d="M555,211.9h-15L517.4,184h14.7c5.2-0.1,8.7-1.1,10.5-2.9c1.1-1.1,1.7-2.8,1.7-4.9c0-3.1-0.7-5.3-2.2-6.7
		c-1.6-1.6-3.6-2.3-5.9-2.1H536h-24.4v56.8H500v-68.4h35.8c5.7-0.2,10.4,1.6,14.4,5.3c3.9,3.7,5.8,8.8,5.8,15.2
		c0,5.4-1.7,9.8-5.1,13.2c-2.5,2.5-5.7,4.2-9.8,5.2L555,211.9z"/>
	<path d="M610,155.8c3.7,0,6.9,1.3,9.6,4c2.6,2.6,4,5.8,4,9.6v41.3c0,3.7-1.3,6.9-4,9.6c-2.6,2.6-5.8,4-9.6,4h-29
		c-3.4,0-6.3-1.1-8.9-3.4c-2.5-2.2-4-4.9-4.5-8.3H610c0.5,0,1-0.2,1.4-0.5c0.4-0.4,0.6-0.8,0.6-1.4v-41.3c0-0.6-0.2-1-0.6-1.4
		c-0.4-0.4-0.8-0.6-1.4-0.6h-29c-0.5,0-1,0.2-1.4,0.6c-0.4,0.4-0.5,0.8-0.5,1.4v37.4h-11.6v-37.4c0-3.7,1.3-6.9,4-9.6
		c2.7-2.7,5.9-4,9.6-4H610z"/>
	<path d="M645.7,155.8h28v11.6h-28V155.8z M660.2,224.2c3.7,0,6.9-1.3,9.6-4c2.7-2.7,4-5.9,4-9.6v-37.4h-11.6v37.4
		c0,0.6-0.2,1-0.6,1.4c-0.4,0.4-0.8,0.5-1.4,0.5h-14.5v11.6H660.2z"/>
	<path d="M751.5,155.8v11.6h-44.3v45.1h44.3v11.6h-55.9l0-68.4H751.5z M740,184.2h-27.1v11.6H740V184.2z"/>
	<path d="M786.7,224.2c-3.7,0-6.9-1.3-9.6-4c-2.6-2.7-4-5.9-4-9.6v-41.2c0-3.7,1.3-6.9,4-9.6c2.7-2.7,5.9-4,9.6-4h29
		c3.7,0,6.9,1.3,9.6,4c2.6,2.6,4,5.8,4,9.6v9h-11.6v-9c0-0.6-0.2-1-0.6-1.4c-0.4-0.4-0.8-0.6-1.4-0.6h-29c-0.5,0-1,0.2-1.4,0.6
		c-0.4,0.4-0.5,0.8-0.5,1.4v41.2c0,0.6,0.2,1,0.5,1.4c0.4,0.4,0.8,0.5,1.4,0.5h29c0.5,0,1-0.2,1.4-0.5c0.4-0.4,0.6-0.9,0.6-1.4v-8.9
		h11.6v8.9c0,3.7-1.3,7-4,9.6c-2.6,2.6-5.8,4-9.6,4H786.7z"/>
	<path d="M851.1,155.8H896v11.6h-44.8V155.8z M867.8,173.2h11.6v50.9h-11.6V173.2z"/>
</g>
<g class="st8">
	<path d="M435.8,344.2c-3.7,0-6.9-1.3-9.6-4c-2.6-2.7-4-5.9-4-9.6v-41.2c0-3.7,1.3-6.9,4-9.6c2.7-2.7,5.9-4,9.6-4h29
		c3.7,0,6.9,1.3,9.6,4c2.6,2.6,4,5.8,4,9.6v5.2h-11.6v-5.2c0-0.6-0.2-1-0.6-1.4c-0.4-0.4-0.8-0.6-1.4-0.6h-29c-0.5,0-1,0.2-1.4,0.6
		c-0.4,0.4-0.5,0.8-0.5,1.4v41.2c0,0.6,0.2,1,0.5,1.4c0.4,0.4,0.8,0.5,1.4,0.5h29c0.5,0,1-0.2,1.4-0.5c0.4-0.4,0.6-0.9,0.6-1.4v-5.1
		h11.6v5.1c0,3.7-1.3,7-4,9.6c-2.6,2.6-5.8,4-9.6,4H435.8z"/>
	<path d="M555.3,331.9h-15L517.7,304h14.7c5.2-0.1,8.7-1.1,10.5-2.9c1.1-1.1,1.7-2.8,1.7-4.9c0-3.1-0.7-5.3-2.2-6.7
		c-1.6-1.6-3.6-2.3-5.9-2.1h-0.3h-24.4v56.8h-11.6v-68.4h35.8c5.7-0.2,10.4,1.6,14.4,5.3c3.9,3.7,5.8,8.8,5.8,15.2
		c0,5.4-1.7,9.8-5.1,13.2c-2.5,2.5-5.7,4.2-9.8,5.2L555.3,331.9z"/>
	<path d="M623.7,275.8v11.6h-44.3v45.1h44.3v11.6h-55.9l0-68.4H623.7z M612.3,304.2h-27.1v11.6h27.1V304.2z"/>
	<path d="M715.7,344.2h-12.9l-4.7-9.7h-28.5l5.7-11.6h17.1l-11.8-24.2l-22.2,45.5h-12.9l35.2-68.4L715.7,344.2z"/>
	<path d="M734.6,275.8h44.8v11.6h-44.8V275.8z M751.2,293.2h11.6v50.9h-11.6V293.2z"/>
	<path d="M843.8,275.8c3.7,0,6.9,1.3,9.6,4c2.6,2.6,4,5.8,4,9.6v41.3c0,3.7-1.3,6.9-4,9.6c-2.6,2.6-5.8,4-9.6,4h-29
		c-3.4,0-6.3-1.1-8.9-3.4c-2.5-2.2-4-4.9-4.5-8.3h42.3c0.5,0,1-0.2,1.4-0.5c0.4-0.4,0.6-0.8,0.6-1.4v-41.3c0-0.6-0.2-1-0.6-1.4
		c-0.4-0.4-0.8-0.6-1.4-0.6h-29c-0.5,0-1,0.2-1.4,0.6c-0.4,0.4-0.5,0.8-0.5,1.4v37.4h-11.6v-37.4c0-3.7,1.3-6.9,4-9.6
		c2.7-2.7,5.9-4,9.6-4H843.8z"/>
	<path d="M934.6,331.9h-15L897.1,304h14.7c5.2-0.1,8.7-1.1,10.5-2.9c1.1-1.1,1.7-2.8,1.7-4.9c0-3.1-0.7-5.3-2.2-6.7
		c-1.6-1.6-3.6-2.3-5.9-2.1h-0.3h-24.4v56.8h-11.6v-68.4h35.8c5.7-0.2,10.4,1.6,14.4,5.3c3.9,3.7,5.8,8.8,5.8,15.2
		c0,5.4-1.7,9.8-5.1,13.2c-2.5,2.5-5.7,4.2-9.8,5.2L934.6,331.9z"/>
</g>
</svg>
