<svg id="Capa_1" data-name="Capa 1" xmlns="http://www.w3.org/2000/svg" viewBox="0 0 983 385"><defs><style>.cls-1{fill:#cecece;}.cls-1,.cls-2,.cls-3,.cls-4,.cls-5,.cls-6,.cls-7,.cls-8{fill-rule:evenodd;}.cls-2{fill:#fdb440;}.cls-3{fill:#baafb9;}.cls-4{fill:#fe9737;}.cls-5{fill:#e8eaea;}.cls-6{fill:#6bd9e7;}.cls-7{fill:#00c7dd;}.cls-8{fill:#d4d6d8;}.cls-9{font-size:100px;font-family:Raleigh;letter-spacing:-0.3em;}</style></defs><path class="cls-1" d="M172.92,145V123.91a2.67,2.67,0,0,0-2.67-2.65h-50.7a2.65,2.65,0,0,0-2.65,2.65V145a2.67,2.67,0,0,0,2.65,2.67h50.7a2.68,2.68,0,0,0,2.67-2.67Z"/><path class="cls-2" d="M324.66,323.18V283.13a6.85,6.85,0,0,0-6.85-6.82H248.23a6.85,6.85,0,0,0-6.84,6.82v40.05Z"/><path class="cls-1" d="M324.66,317.12H231.91a11.31,11.31,0,0,0-11.3,11.27v8.24a3,3,0,0,0,3,3H342.39a3,3,0,0,0,3-3v-8.24a11.31,11.31,0,0,0-11.28-11.27Z"/><path class="cls-3" d="M170.25,121.26H152.94a2.67,2.67,0,0,1,2.67,2.65V145a2.69,2.69,0,0,1-2.67,2.67h17.31a2.68,2.68,0,0,0,2.67-2.67V123.91A2.67,2.67,0,0,0,170.25,121.26Z"/><path class="cls-2" d="M311,40.28H253.58a2.93,2.93,0,0,0-2.93,2.92V83.82a2.93,2.93,0,0,0,2.93,2.92H311A2.93,2.93,0,0,0,314,83.82V43.2A2.93,2.93,0,0,0,311,40.28Z"/><path class="cls-4" d="M314,48.14V43.2A2.93,2.93,0,0,0,311,40.28H290.11A2.93,2.93,0,0,1,293,43.2V83.82a2.94,2.94,0,0,1-2.92,2.92H311A2.93,2.93,0,0,0,314,83.82V48.14Z"/><path class="cls-4" d="M324.66,283.13a6.85,6.85,0,0,0-6.85-6.82H296.88a6.85,6.85,0,0,1,6.84,6.82v34h20.94Z"/><path class="cls-3" d="M345.42,328.39a11.31,11.31,0,0,0-11.28-11.27H313.19a11.31,11.31,0,0,1,11.3,11.27v8.24a3,3,0,0,1-3.05,3h20.95a3,3,0,0,0,3-3v-8.24Z"/><path class="cls-5" d="M98.36,229.14V140.27A1.31,1.31,0,0,0,97,138.86H50.68c-1.19,0-2.14,1.27-2.14,2.84V336.82c0,1.54,1,2.83,2.14,2.83h95.37c1.17,0,2.13-1.29,2.13-2.83V230.55a1.55,1.55,0,0,0-1.55-1.41H98.36Z"/><path class="cls-6" d="M98.36,274.57V251.68H70.63a2.25,2.25,0,0,0-2.24,2.23v18.43a2.23,2.23,0,0,0,2.24,2.23Z"/><path class="cls-6" d="M128.32,272.34V253.91a2.24,2.24,0,0,0-2.22-2.23H98.36v22.89H126.1A2.22,2.22,0,0,0,128.32,272.34Z"/><path class="cls-6" d="M128.32,299.34a2.24,2.24,0,0,0-2.22-2.23H98.36V320H126.1a2.22,2.22,0,0,0,2.22-2.23Z"/><path class="cls-6" d="M98.36,320V297.11H70.63a2.25,2.25,0,0,0-2.24,2.23v18.43A2.23,2.23,0,0,0,70.63,320Z"/><path class="cls-7" d="M98.36,251.68H70.63a2.25,2.25,0,0,0-2.24,2.23v9.21a2.25,2.25,0,0,1,2.24-2.23H98.36Z"/><path class="cls-7" d="M126.1,251.68H98.36v9.21H126.1a2.24,2.24,0,0,1,2.22,2.23v-9.21a2.24,2.24,0,0,0-2.22-2.23Z"/><path class="cls-7" d="M126.1,297.11H98.36v9.21H126.1a2.25,2.25,0,0,1,2.22,2.24v-9.22a2.24,2.24,0,0,0-2.22-2.23Z"/><path class="cls-7" d="M98.36,297.11H70.63a2.25,2.25,0,0,0-2.24,2.23v9.22a2.26,2.26,0,0,1,2.24-2.24H98.36Z"/><path class="cls-8" d="M148.18,336.82V230.55a1.55,1.55,0,0,0-1.55-1.41H135a1.53,1.53,0,0,1,1.53,1.41V336.82c0,1.54-1,2.83-2.13,2.83h11.68c1.17,0,2.13-1.29,2.13-2.83Z"/><path class="cls-8" d="M86.68,160.81v68.33H98.36V140.27A1.31,1.31,0,0,0,97,138.86H85.3a1.32,1.32,0,0,1,1.38,1.41Z"/><path d="M148.18,201.48a4.52,4.52,0,0,0,0-9H127.79V178.9a4.52,4.52,0,1,0-9,0v13.54H102.88V140.27A5.84,5.84,0,0,0,97,134.34H50.68c-3.74,0-6.66,3.23-6.66,7.36V336.82c0,4.12,2.92,7.35,6.66,7.35h95.37c3.67,0,6.65-3.3,6.65-7.35V290a4.52,4.52,0,0,0-9,0v45.16H53.06V143.38H93.84v11.37H78.58a4.52,4.52,0,0,0,0,9H93.84v16.41H80.15a4.52,4.52,0,1,0,0,9H93.84v39.92a4.52,4.52,0,0,0,4.52,4.52h45.31V269a4.52,4.52,0,1,0,9,0V230.55a6,6,0,0,0-6.07-5.93H127.79V201.48Zm-29.42,23.14H102.88V201.48h15.87v23.14Z"/><path d="M302.24,244.71V181.53h0V118.34h0V91.26H311a7.45,7.45,0,0,0,7.44-7.44v-.41h23.41a8.74,8.74,0,0,0,5.27-1.73,4.15,4.15,0,0,0,.73-.61l.14-.16a7.07,7.07,0,0,0,2.12-5V51.09c0-4.12-3.71-7.47-8.26-7.47H318.48V43.2A7.45,7.45,0,0,0,311,35.76H253.58a7.45,7.45,0,0,0-7.44,7.44v.42H118.9c-4.56,0-8.28,3.35-8.28,7.47V75.93c0,4.12,3.72,7.48,8.28,7.48h21.49V99l-16.71,17.76h-4.13a7.18,7.18,0,0,0-7.17,7.17V145a7.18,7.18,0,0,0,7.17,7.18h50.7a7.19,7.19,0,0,0,7.19-7.18V123.91a7.19,7.19,0,0,0-7.19-7.17h-4.11L149.43,99V83.41h96.71v.41a7.45,7.45,0,0,0,7.44,7.44h8.8V271.79H248.22a11.36,11.36,0,0,0-11.35,11.34V312.6h-5a15.82,15.82,0,0,0-15.82,15.79v8.24a7.56,7.56,0,0,0,7.57,7.54H342.39a7.55,7.55,0,0,0,7.55-7.54v-8.24a15.81,15.81,0,0,0-15.8-15.79h-5V283.13a11.37,11.37,0,0,0-11.37-11.34H302.24V244.72Zm38.87-192V68.2l-16-15.55Zm-22.63,6.16,16,15.55h-16ZM119.66,74.37V52.65h2.5l22.36,21.72Zm48.75,51.41v17.4h-47v-17.4Zm-14.67-9H136.09l8.82-9.38ZM135.13,52.65h41.06L155.66,72.59Zm48.44,21.72H166.8l20.53-19.94,20.52,19.94Zm14.89-21.72h41.06L219,72.59ZM237.6,74.37h-7.47l16-15.55V74.37Zm80.21,206.46a2.32,2.32,0,0,1,2.34,2.3V312.6H293.84a4.52,4.52,0,0,0,0,9h40.3a6.78,6.78,0,0,1,6.77,6.76v6.74H225.13v-6.74a6.78,6.78,0,0,1,6.78-6.76H272a4.52,4.52,0,0,0,0-9H245.9V283.13a2.34,2.34,0,0,1,2.32-2.3h69.59Zm-26.4-162.49-20,20.49v-41ZM277.62,91.26H293.2v16Zm15.58,38.18v41l-20-20.5Zm-1.79,52.09-20,20.49V161Zm1.79,11.1v41l-20-20.49Zm-1.79,52.08-20,20.5v-41Zm1.79,11.11v16H277.62Zm4.52-173.59H255.17V44.8h54.28V82.23Z"/><path d="M132.84,253.91a6.76,6.76,0,0,0-6.74-6.75H70.63a6.76,6.76,0,0,0-6.76,6.75v18.43a6.76,6.76,0,0,0,6.76,6.75H126.1a6.76,6.76,0,0,0,6.74-6.75Zm-39,16.14H72.9V256.19H93.84v13.86Zm30,0H102.88V256.19H123.8v13.86Z"/><path d="M126.1,292.59H70.63a6.76,6.76,0,0,0-6.76,6.75v18.43a6.76,6.76,0,0,0,6.76,6.75H126.1a6.76,6.76,0,0,0,6.74-6.75V299.34a6.76,6.76,0,0,0-6.74-6.75Zm-32.26,22.9H72.9V301.63H93.84v13.86Zm30,0H102.88V301.63H123.8v13.86Z"/><text class="cls-9" transform="translate(422.3 104.17)">Python <tspan x="0" y="120">Project </tspan><tspan x="0" y="240">Creator</tspan></text></svg>